Coordinates
version=1
nRows=17
nColumns=24
inDegrees=yes

Units are S.I. units (second, meters, Newtons, ...)
Angles are in degrees.

endheader
time	pelvis_tilt	pelvis_list	pelvis_rotation	pelvis_tx	pelvis_ty	pelvis_tz	hip_flexion_r	hip_adduction_r	hip_rotation_r	knee_angle_r	ankle_angle_r	subtalar_angle_r	mtp_angle_r	hip_flexion_l	hip_adduction_l	hip_rotation_l	knee_angle_l	ankle_angle_l	subtalar_angle_l	mtp_angle_l	lumbar_extension	lumbar_bending	lumbar_rotation
      0.54200000	     -1.17367069	      1.34602461	      7.90063696	     -0.76005565	      0.89300270	      0.29666503	     26.08378176	     -1.27705751	     -9.84255440	     -2.65428198	      3.04017336	      0.25318463	      3.81760294	    -16.36995983	      1.20536207	      5.29676254	     -8.46418507	     15.58228398	      1.79321829	      7.97017289	     -6.89724967	     -2.52523663	     -9.97456786
      0.54616667	     -1.22358841	      1.33679270	      7.96943113	     -0.75428638	      0.89196616	      0.29691758	     26.24709518	     -1.22423429	     -9.57154118	     -3.17291634	      3.11037519	      0.14385940	      3.80222556	    -16.38889459	      1.12510065	      5.39052252	     -9.12423163	     15.67731282	      1.80436882	      8.03595027	     -6.82749297	     -2.45060425	     -9.85299702
      0.55033333	     -1.27538077	      1.29285604	      8.02349414	     -0.74846434	      0.89094369	      0.29724020	     26.40301170	     -1.11977860	     -9.26136554	     -3.73059778	      3.01288823	     -0.16652760	      3.78864169	    -16.34338971	      0.99413539	      5.25578752	     -9.91053944	     15.77251105	      2.14241220	      8.19395754	     -6.74401176	     -2.34430398	     -9.77719984
      0.55450000	     -1.25557477	      1.20241755	      8.07357950	     -0.74255493	      0.89004746	      0.29758941	     26.46181613	     -0.94998631	     -8.95105748	     -4.31173735	      2.90855430	     -0.53988166	      3.80461363	    -16.35024621	      0.79390650	      5.03948701	    -10.74853447	     15.92749913	      2.59379487	      8.54848928	     -6.73115356	     -2.15218530	     -9.71754047
      0.55866667	     -1.28114061	      1.12988934	      8.11797474	     -0.73664608	      0.88912844	      0.29795066	     26.59062498	     -0.80261676	     -8.63729760	     -4.99185958	      2.74554601	     -0.96546623	      3.85583478	    -16.29279097	      0.62637018	      4.87860262	    -11.61215893	     15.97699411	      2.91856820	      8.96636954	     -6.66654175	     -1.99896301	     -9.63369503
      0.56283333	     -1.32186393	      1.06866515	      8.13502474	     -0.73070769	      0.88820906	      0.29833848	     26.76842621	     -0.66121477	     -8.33427952	     -5.78498329	      2.52315624	     -1.42123922	      3.90275458	    -16.23544446	      0.48613943	      4.76122481	    -12.45286800	     15.96600084	      3.14717663	      9.25145075	     -6.57247319	     -1.86569677	     -9.54676326
      0.56700000	     -1.30964444	      0.95943619	      8.15174929	     -0.72468626	      0.88739526	      0.29874744	     26.87391654	     -0.45963283	     -8.06624111	     -6.58567069	      2.29978997	     -1.85372699	      4.63149638	    -16.18919719	      0.27148925	      4.50605027	    -13.37078555	     15.93232598	      3.48392946	     12.97325572	     -6.54220483	     -1.65370177	     -9.49740410
      0.57116667	     -1.33951866	      0.88383478	      8.15058105	     -0.71867371	      0.88656694	      0.29916772	     27.04412271	     -0.28877898	     -7.75411624	     -7.45959896	      2.04937395	     -2.41813847	      4.63248537	    -16.11028385	      0.12508671	      4.41836739	    -14.27831958	     15.82292336	      3.58606237	     13.02527660	     -6.44923824	     -1.49402461	     -9.34732524
      0.57533333	     -1.36161540	      0.77519520	      8.14762787	     -0.71259905	      0.88578685	      0.29962758	     27.20367749	     -0.07888566	     -7.47123790	     -8.35037670	      1.68971899	     -2.98415962	      4.64516254	    -16.00925490	     -0.07399096	      4.21598531	    -15.23552423	     15.68468358	      3.84564796	     13.13499259	     -6.36975187	     -1.29749455	     -9.20185918
      0.57950000	     -1.31334846	      0.62774686	      8.13467147	     -0.70645671	      0.88514497	      0.30010775	     27.26847498	      0.18657446	     -7.23589850	     -9.20919443	      1.22840878	     -3.59601188	      4.70081736	    -15.94696589	     -0.33670788	      3.89775672	    -16.26693429	     15.56685491	      4.28073837	     13.47959385	     -6.35730153	     -1.04017257	     -9.02942812
      0.58366667	     -1.36043725	      0.54186422	      8.09975360	     -0.70034428	      0.88440505	      0.30057845	     27.49300887	      0.37412269	     -6.97935379	    -10.22253645	      0.93219954	     -4.09391832	      4.72747106	    -15.79200375	     -0.48426515	      3.75910798	    -17.28272755	     15.27860167	      4.33262585	     13.64980756	     -6.22686875	     -0.85908904	     -8.91422247
      0.58783333	     -1.33453798	      0.40120030	      8.07406031	     -0.69416702	      0.88381769	      0.30108259	     27.60826523	      0.62896740	     -6.78106832	    -11.16898569	      0.46910515	     -4.66724294	      5.43571440	    -15.65991393	     -0.73401848	      3.44572104	    -18.38222836	     14.97567969	      4.61437540	     18.04226969	     -6.18091602	     -0.60769322	     -8.79532188
      0.59200000	     -1.36762643	      0.30655364	      8.02312428	     -0.68800625	      0.88319569	      0.30157750	     27.82356673	      0.82877449	     -6.56622126	    -12.21392883	      0.11410347	     -5.13934541	      5.42583665	    -15.47750610	     -0.88954084	      3.30028822	    -19.46943502	     14.55571648	      4.63945007	     18.08840885	     -6.06487677	     -0.41595351	     -8.59972928
      0.59616667	     -1.38301913	      0.19857554	      7.97508124	     -0.68182276	      0.88265099	      0.30208595	     28.01494293	      1.04296020	     -6.38234691	    -13.25772786	     -0.25719443	     -5.61313604	      5.41891168	    -15.27131209	     -1.07224748	      3.09511523	    -20.62607755	     14.12713775	      4.74578841	     18.19005137	     -5.96461407	     -0.20770542	     -8.41488643
      0.60033333	     -1.38844921	      0.08399724	      7.92043612	     -0.67562588	      0.88216307	      0.30261544	     28.19935766	      1.26513263	     -6.21596242	    -14.31760567	     -0.59937117	     -6.04585859	      5.41446396	    -15.04591560	     -1.26653350	      2.86798345	    -21.82905203	     13.66078245	      4.85933431	     18.35141598	     -5.88290761	      0.00499471	     -8.23486378
      0.60450000	     -1.32428527	     -0.09505642	      7.86538403	     -0.66937267	      0.88182063	      0.30319877	     28.26273370	      1.57218239	     -6.05024393	    -15.27163456	     -0.98439814	     -6.54051990	      5.41102429	    -14.83637635	     -1.57275220	      2.48281329	    -23.13538948	     13.18763773	      5.17637096	     19.47874743	     -5.87729063	      0.30530358	     -7.95276537
      0.60866667	     -1.36310783	     -0.12973360	      7.79500739	     -0.66321533	      0.88138074	      0.30367999	     28.53880692	      1.68522986	     -5.96098335	    -16.49374238	     -1.07862931	     -6.71397324	      5.36746759	    -14.54830022	     -1.64560729	      2.38812001	    -24.36354479	     12.46048608	      4.96306333	     23.33123502	     -5.76974124	      0.42196753	     -7.80673591
